# xmcd
#
# Track frame offsets:
# 150
# 13367
# 25070
# 40939
# 53475
# 64496
# 80704
# 96778
# 109109
# 123394
# 134483
# 148335
# 165125
# 181655
#
# Disc length: 2554 seconds
#
#
# Revision: 0
# Processed by: cddbd v1.5.2PL0 Copyright (c) Steve Scherf et al.
# Submitted via: FreeRIP 2.51 
#
DISCID=be09f80e
DTITLE=Various Artist - #1 Country Hits The Platinum Artist Series
DYEAR=1900
DGENRE=Country
TTITLE0=Rose Garden - Lynn Anderson
TTITLE1=The Happiest Girl In The Whole U.S.A. - Donna Fargo
TTITLE2=Another Somebody Done Somebody Wrong Song - B.J. Thomas
TTITLE3=Wasted Days and Wasted Nights - Freddy Fender
TTITLE4=Don't Worry 'Bout Me Baby - Jamie Fricke
TTITLE5=She's a Miracle - Exile
TTITLE6=Hurt - Juice Newton
TTITLE7=Take This Job and Shove It - Johnny Paycheck
TTITLE8=Hell and High Water - T. Graham Brown
TTITLE9=There Goes My Everything - Jack Greene
TTITLE10=I Cheated Me Right Out Of You - Moe Bandy
TTITLE11=You Decorated My Life - Kenny Rogers
TTITLE12=In A Different Light - Doug Stone
TTITLE13=With One Exception - David Houston
EXTD=
EXTT0=
EXTT1=
EXTT2=
EXTT3=
EXTT4=
EXTT5=
EXTT6=
EXTT7=
EXTT8=
EXTT9=
EXTT10=
EXTT11=
EXTT12=
EXTT13=
PLAYORDER=
